<svg width="380" height="84" viewBox="0 0 380 84" fill="none" xmlns="http://www.w3.org/2000/svg">
<path d="M0 12C0 5.37258 5.37258 0 12 0H368C374.627 0 380 5.37258 380 12V72C380 78.6274 374.627 84 368 84H12C5.37259 84 0 78.6274 0 72V12Z" fill="#111827"/>
<path d="M61.9766 46.6453C61.9766 45.9159 61.8643 45.2613 61.6399 44.6815C61.4342 44.083 61.0414 43.5406 60.4616 43.0543C59.8818 42.5494 59.0683 42.0537 58.0209 41.5675C56.9735 41.0812 55.6176 40.5762 53.953 40.0525C52.1014 39.454 50.3433 38.7807 48.6788 38.0326C47.0329 37.2845 45.5741 36.4148 44.3023 35.4235C43.0492 34.4136 42.0579 33.2447 41.3285 31.9167C40.6178 30.5888 40.2624 29.0459 40.2624 27.2878C40.2624 25.5858 40.6365 24.0428 41.3846 22.6588C42.1327 21.2561 43.1801 20.0591 44.5267 19.0678C45.8733 18.0579 47.4631 17.2817 49.296 16.7393C51.1476 16.1969 53.1768 15.9258 55.3838 15.9258C58.3949 15.9258 61.0227 16.4681 63.2671 17.5529C65.5114 18.6377 67.2508 20.1246 68.4852 22.0136C69.2019 23.094 69.7137 24.2631 70.0204 25.521C70.413 27.1307 69.0216 28.4941 67.3648 28.4941H65.0046C63.3477 28.4941 62.1129 27.0714 61.3728 25.5891C61.3328 25.5089 61.2909 25.4299 61.2471 25.352C60.7609 24.4356 60.0127 23.7155 59.0028 23.1918C58.0115 22.6682 56.7584 22.4063 55.2435 22.4063C53.7847 22.4063 52.569 22.6308 51.5964 23.0796C50.6239 23.5098 49.8945 24.0989 49.4082 24.847C48.9219 25.5765 48.6788 26.3994 48.6788 27.3158C48.6788 28.0078 48.8471 28.6344 49.1838 29.1955C49.5391 29.7566 50.0628 30.2802 50.7548 30.7665C51.4468 31.2528 52.2978 31.711 53.3078 32.1412C54.3177 32.5714 55.4866 32.9922 56.8146 33.4036C59.0402 34.0769 60.9947 34.8344 62.6779 35.676C64.3799 36.5177 65.8013 37.4622 66.9422 38.5095C68.0831 39.5569 68.9434 40.7445 69.5232 42.0724C70.103 43.4003 70.3929 44.9059 70.3929 46.5892C70.3929 48.366 70.0469 49.9557 69.3549 51.3584C68.6628 52.7611 67.6622 53.9488 66.353 54.9213C65.0438 55.8939 63.4821 56.6327 61.668 57.1376C59.8538 57.6426 57.8245 57.8951 55.5802 57.8951C53.5602 57.8951 51.5684 57.6333 49.6046 57.1096C47.6408 56.5672 45.8546 55.7536 44.2462 54.6688C42.6564 53.5841 41.3846 52.2001 40.4308 50.5168C39.9157 49.6079 39.5398 48.6091 39.3028 47.5203C38.9505 45.9013 40.3431 44.5412 42 44.5412H44.4444C46.1012 44.5412 47.3254 45.9396 47.9174 47.4871C47.954 47.5827 47.9927 47.6761 48.0335 47.7675C48.4263 48.6465 48.978 49.3572 49.6887 49.8996C50.4182 50.442 51.2785 50.8347 52.2697 51.0779C53.2797 51.321 54.3832 51.4426 55.5802 51.4426C57.039 51.4426 58.236 51.2369 59.1711 50.8254C60.125 50.4139 60.8263 49.8435 61.2752 49.1141C61.7428 48.3847 61.9766 47.5617 61.9766 46.6453ZM93.5658 50.0679V29.9792C93.5658 28.3223 94.9089 26.9792 96.5658 26.9792H98.6454C100.302 26.9792 101.645 28.3223 101.645 29.9792V54.334C101.645 55.9909 100.302 57.334 98.6454 57.334H96.8522C95.2717 57.334 93.9622 56.1077 93.8587 54.5305L93.5658 50.0679ZM94.4164 45.0032C94.47 44.3579 94.9803 43.8277 95.6277 43.8125V43.8125C96.297 43.7967 96.8514 44.3354 96.8188 45.0041C96.7428 46.5658 96.5189 48.0386 96.1468 49.4227C95.6792 51.1433 94.9778 52.6396 94.0427 53.9114C93.1076 55.1645 91.9293 56.1464 90.5079 56.8571C89.0864 57.5491 87.4125 57.8951 85.4861 57.8951C84.0086 57.8951 82.6433 57.6894 81.3902 57.2779C80.1558 56.8477 79.0897 56.1838 78.192 55.286C77.3129 54.3696 76.6209 53.2007 76.116 51.7792C75.6297 50.3391 75.3865 48.6091 75.3865 46.5892V29.9792C75.3865 28.3223 76.7296 26.9792 78.3865 26.9792H80.4662C82.123 26.9792 83.4662 28.3223 83.4662 29.9792V46.6453C83.4662 47.543 83.5691 48.3005 83.7748 48.9177C83.9992 49.5349 84.3078 50.0399 84.7006 50.4326C85.0934 50.8254 85.5516 51.1059 86.0753 51.2743C86.6176 51.4426 87.2161 51.5268 87.8707 51.5268C89.5353 51.5268 90.8445 51.1901 91.7984 50.5168C92.7709 49.8435 93.4536 48.9271 93.8463 47.7675C94.1441 46.9146 94.3342 45.9932 94.4164 45.0032ZM108.266 29.9792C108.266 28.3223 109.609 26.9792 111.266 26.9792H113.374C115.031 26.9792 116.374 28.3223 116.374 29.9792V59.1575C116.374 61.4019 115.962 63.3002 115.14 64.8526C114.317 66.4049 113.129 67.5832 111.577 68.3874C110.024 69.1917 108.145 69.5938 105.938 69.5938C105.246 69.5938 104.572 69.5564 103.918 69.4816V69.4816C102.69 69.3451 101.846 68.2426 101.851 67.0077L101.864 64.2463C101.867 63.5492 102.494 63.0248 103.188 63.0852V63.0852C103.6 63.1413 104.021 63.1693 104.451 63.1693C105.292 63.1693 105.994 63.029 106.555 62.7485C107.116 62.468 107.537 62.0284 107.817 61.4299C108.117 60.8502 108.266 60.0927 108.266 59.1575V29.9792ZM107.621 19.0678C107.621 17.8896 108.032 16.917 108.855 16.1502C109.697 15.3834 110.8 15 112.166 15C113.55 15 114.653 15.3834 115.476 16.1502C116.299 16.917 116.711 17.8896 116.711 19.0678C116.711 20.2461 116.299 21.2187 115.476 21.9855C114.653 22.7523 113.55 23.1357 112.166 23.1357C110.8 23.1357 109.697 22.7523 108.855 21.9855C108.032 21.2187 107.621 20.2461 107.621 19.0678ZM136.769 57.8951C134.413 57.8951 132.299 57.521 130.429 56.7729C128.559 56.0061 126.969 54.9494 125.66 53.6028C124.369 52.2562 123.378 50.6945 122.686 48.9177C121.994 47.1222 121.648 45.2145 121.648 43.1946V42.0724C121.648 39.772 121.975 37.6679 122.63 35.7602C123.285 33.8525 124.22 32.1973 125.435 30.7946C126.67 29.3919 128.166 28.3164 129.924 27.5683C131.682 26.8015 133.665 26.4181 135.872 26.4181C138.023 26.4181 139.931 26.7734 141.595 27.4842C143.26 28.1949 144.653 29.2048 145.775 30.514C146.916 31.8232 147.776 33.3943 148.356 35.2272C148.936 37.0413 149.226 39.0613 149.226 41.2869V41.6534C149.226 43.3103 147.883 44.6534 146.226 44.6534H127.792C126.305 44.6534 125.099 43.4476 125.099 41.9602V41.9602C125.099 40.4728 126.305 39.267 127.792 39.267H140.669C141.01 39.267 141.287 38.9907 141.287 38.6498V38.6498C141.287 37.5276 141.081 36.527 140.669 35.648C140.277 34.7502 139.678 34.0395 138.874 33.5158C138.07 32.9922 137.041 32.7303 135.788 32.7303C134.721 32.7303 133.805 32.9641 133.038 33.4317C132.271 33.8993 131.645 34.5539 131.159 35.3955C130.691 36.2371 130.336 37.2284 130.093 38.3693C129.868 39.4914 129.756 40.7258 129.756 42.0724V43.1946C129.756 44.4103 129.924 45.5325 130.261 46.5611C130.616 47.5898 131.112 48.4782 131.748 49.2263C132.402 49.9744 133.188 50.5542 134.104 50.9657C135.039 51.3771 136.096 51.5829 137.275 51.5829C138.734 51.5829 140.09 51.3023 141.343 50.7412C141.583 50.6315 141.817 50.5114 142.045 50.3809C143.614 49.483 145.733 49.3355 146.957 50.6647V50.6647C147.89 51.6767 148.008 53.2243 146.995 54.1556C146.672 54.4526 146.321 54.7453 145.944 55.0336C144.859 55.8752 143.55 56.5672 142.016 57.1096C140.482 57.6333 138.734 57.8951 136.769 57.8951ZM159.355 26.9792C161.012 26.9792 162.355 28.3223 162.355 29.9792V54.334C162.355 55.9909 161.012 57.334 159.355 57.334H157.248C155.591 57.334 154.248 55.9909 154.248 54.334V29.9792C154.248 28.3223 155.591 26.9792 157.248 26.9792H159.355ZM153.743 19.0678C153.743 17.8896 154.154 16.917 154.977 16.1502C155.8 15.3834 156.903 15 158.288 15C159.653 15 160.747 15.3834 161.57 16.1502C162.412 16.917 162.832 17.8896 162.832 19.0678C162.832 20.2461 162.412 21.2187 161.57 21.9855C160.747 22.7523 159.653 23.1357 158.288 23.1357C156.903 23.1357 155.8 22.7523 154.977 21.9855C154.154 21.2187 153.743 20.2461 153.743 19.0678ZM181.039 26.9792C182.62 26.9792 183.901 28.2604 183.901 29.8408V29.8408C183.901 31.4211 182.62 32.7023 181.039 32.7023H169.088C167.508 32.7023 166.227 31.4211 166.227 29.8408V29.8408C166.227 28.2604 167.508 26.9792 169.088 26.9792H181.039ZM170.603 22.4887C170.603 20.8318 171.946 19.4887 173.603 19.4887H175.683C177.34 19.4887 178.683 20.8318 178.683 22.4887V48.1883C178.683 49.0673 178.795 49.7406 179.02 50.2082C179.263 50.6758 179.618 51.0031 180.086 51.1901C180.553 51.3584 181.142 51.4426 181.853 51.4426C182.358 51.4426 182.807 51.4239 183.2 51.3865V51.3865C183.74 51.3128 184.24 51.7248 184.243 52.2699L184.255 54.974C184.262 56.2795 183.424 57.4613 182.137 57.6795C182.099 57.686 182.06 57.6924 182.022 57.6987C181.217 57.8296 180.329 57.8951 179.356 57.8951C177.58 57.8951 176.027 57.6052 174.699 57.0254C173.39 56.4269 172.38 55.4731 171.669 54.1639C170.959 52.8547 170.603 51.134 170.603 49.0019V22.4887ZM186.482 42.4652V41.8761C186.482 39.6504 186.8 37.6024 187.436 35.7321C188.072 33.8431 188.998 32.2066 190.213 30.8226C191.429 29.4386 192.925 28.3632 194.702 27.5964C196.479 26.8109 198.517 26.4181 200.818 26.4181C203.118 26.4181 205.166 26.8109 206.962 27.5964C208.757 28.3632 210.263 29.4386 211.479 30.8226C212.713 32.2066 213.648 33.8431 214.284 35.7321C214.92 37.6024 215.238 39.6504 215.238 41.8761V42.4652C215.238 44.6721 214.92 46.7201 214.284 48.6091C213.648 50.4794 212.713 52.1159 211.479 53.5186C210.263 54.9026 208.767 55.978 206.99 56.7449C205.213 57.5117 203.175 57.8951 200.874 57.8951C198.574 57.8951 196.526 57.5117 194.73 56.7449C192.953 55.978 191.448 54.9026 190.213 53.5186C188.998 52.1159 188.072 50.4794 187.436 48.6091C186.8 46.7201 186.482 44.6721 186.482 42.4652ZM194.562 41.8761V42.4652C194.562 43.737 194.674 44.9246 194.898 46.0281C195.123 47.1316 195.478 48.1041 195.965 48.9458C196.47 49.7687 197.124 50.4139 197.928 50.8815C198.733 51.3491 199.714 51.5829 200.874 51.5829C201.996 51.5829 202.959 51.3491 203.764 50.8815C204.568 50.4139 205.213 49.7687 205.699 48.9458C206.186 48.1041 206.541 47.1316 206.765 46.0281C207.009 44.9246 207.13 43.737 207.13 42.4652V41.8761C207.13 40.6417 207.009 39.4821 206.765 38.3973C206.541 37.2938 206.176 36.3213 205.671 35.4797C205.185 34.6193 204.54 33.946 203.736 33.4597C202.931 32.9735 201.959 32.7303 200.818 32.7303C199.677 32.7303 198.705 32.9735 197.9 33.4597C197.115 33.946 196.47 34.6193 195.965 35.4797C195.478 36.3213 195.123 37.2938 194.898 38.3973C194.674 39.4821 194.562 40.6417 194.562 41.8761Z" fill="white"/>
<g filter="url(#filter0_d_6_9)">
<path d="M220.856 43.4169H213.448C211.791 43.4169 210.448 42.0738 210.448 40.4169V39.8521C210.448 38.1952 211.791 36.8521 213.448 36.8521H220.856C222.465 36.8521 223.774 36.5903 224.784 36.0666C225.794 35.5242 226.532 34.7761 227 33.8223C227.468 32.8684 227.701 31.793 227.701 30.596C227.701 29.3803 227.468 28.2488 227 27.2014C226.532 26.1541 225.794 25.3124 224.784 24.6765C223.774 24.0406 222.465 23.7227 220.856 23.7227H216.366C214.709 23.7227 213.366 25.0659 213.366 26.7227V54.9771C213.366 56.634 212.023 57.9771 210.366 57.9771H207.949C206.292 57.9771 204.949 56.634 204.949 54.9771V20.1299C204.949 18.4731 206.292 17.1299 207.949 17.1299H220.856C224.054 17.1299 226.794 17.7097 229.076 18.8693C231.377 20.0102 233.135 21.5906 234.35 23.6105C235.566 25.6304 236.174 27.9402 236.174 30.5399C236.174 33.177 235.566 35.4588 234.35 37.3852C233.135 39.3116 231.377 40.7984 229.076 41.8458C226.794 42.8932 224.054 43.4169 220.856 43.4169ZM247.005 27.6222C248.662 27.6222 250.005 28.9654 250.005 30.6222V54.9771C250.005 56.634 248.662 57.9771 247.005 57.9771H244.897C243.24 57.9771 241.897 56.634 241.897 54.9771V30.6222C241.897 28.9653 243.24 27.6222 244.897 27.6222H247.005ZM241.392 19.7109C241.392 18.5326 241.803 17.5601 242.626 16.7933C243.449 16.0264 244.553 15.643 245.937 15.643C247.302 15.643 248.396 16.0264 249.219 16.7933C250.061 17.5601 250.482 18.5326 250.482 19.7109C250.482 20.8892 250.061 21.8617 249.219 22.6286C248.396 23.3954 247.302 23.7788 245.937 23.7788C244.553 23.7788 243.449 23.3954 242.626 22.6286C241.803 21.8617 241.392 20.8892 241.392 19.7109ZM277.836 51.6648C279.493 51.6648 280.836 53.0079 280.836 54.6648V54.9771C280.836 56.634 279.493 57.9771 277.836 57.9771H260.776C259.119 57.9771 257.776 56.634 257.776 54.9771V54.6648C257.776 53.0079 259.119 51.6648 260.776 51.6648H277.836ZM280.388 31.2758C280.388 31.9271 280.176 32.5606 279.784 33.0808L261.93 56.7822C261.363 57.5346 260.476 57.9771 259.534 57.9771H258.615C256.958 57.9771 255.615 56.634 255.615 54.9771V54.1842C255.615 53.5324 255.827 52.8983 256.219 52.3779L273.989 28.8159C274.555 28.0642 275.442 27.6222 276.384 27.6222H277.388C279.045 27.6222 280.388 28.9654 280.388 30.6222V31.2758ZM274.526 27.6222C276.183 27.6222 277.526 28.9654 277.526 30.6222V30.9625C277.526 32.6194 276.183 33.9625 274.526 33.9625H259.064C257.407 33.9625 256.064 32.6194 256.064 30.9625V30.6222C256.064 28.9654 257.407 27.6222 259.064 27.6222H274.526ZM307.069 51.6648C308.726 51.6648 310.069 53.0079 310.069 54.6648V54.9771C310.069 56.634 308.726 57.9771 307.069 57.9771H290.008C288.351 57.9771 287.008 56.634 287.008 54.9771V54.6648C287.008 53.0079 288.351 51.6648 290.008 51.6648H307.069ZM309.62 31.2758C309.62 31.9271 309.408 32.5606 309.016 33.0808L291.163 56.7821C290.596 57.5346 289.709 57.9771 288.767 57.9771H287.848C286.191 57.9771 284.848 56.634 284.848 54.9771V54.1842C284.848 53.5324 285.06 52.8983 285.452 52.3779L303.221 28.8159C303.788 28.0642 304.675 27.6222 305.617 27.6222H306.62C308.277 27.6222 309.62 28.9654 309.62 30.6222V31.2758ZM303.759 27.6222C305.416 27.6222 306.759 28.9654 306.759 30.6222V30.9625C306.759 32.6194 305.416 33.9625 303.759 33.9625H288.297C286.64 33.9625 285.297 32.6194 285.297 30.9625V30.6222C285.297 28.9654 286.64 27.6222 288.297 27.6222H303.759ZM331.531 51.1318V37.6096C331.531 36.6371 331.372 35.8048 331.054 35.1128C330.736 34.4021 330.24 33.8503 329.567 33.4576C328.912 33.0648 328.061 32.8684 327.014 32.8684C326.116 32.8684 325.34 33.0274 324.685 33.3453C324.031 33.6446 323.526 34.0841 323.17 34.6639V34.6639C322.552 35.6395 321.701 36.6558 320.546 36.6558H317.558C315.901 36.6558 314.504 35.2664 315.115 33.7264C315.215 33.4749 315.328 33.2263 315.455 32.9806C316.054 31.821 316.924 30.8017 318.065 29.9227C319.205 29.025 320.561 28.3236 322.132 27.8186C323.722 27.3136 325.499 27.0612 327.463 27.0612C329.819 27.0612 331.914 27.4539 333.747 28.2394C335.58 29.025 337.02 30.2032 338.067 31.7743C339.133 33.3453 339.666 35.3091 339.666 37.6657V50.6549C339.666 52.3194 339.769 53.6848 339.975 54.7508C340.174 55.7621 340.459 56.6513 340.832 57.4185C340.859 57.4724 340.873 57.5314 340.873 57.5913V57.5913C340.873 57.8044 340.7 57.9771 340.487 57.9771H334.601C333.445 57.9771 332.369 57.315 332.082 56.1951C331.979 55.7894 331.888 55.3548 331.811 54.8911C331.624 53.638 331.531 52.3849 331.531 51.1318ZM330.338 39.4892C331.59 39.4892 332.609 40.4959 332.624 41.7477V41.7477C332.64 43.0213 331.612 44.0621 330.338 44.0621H328.136C327.07 44.0621 326.144 44.1837 325.359 44.4268C324.573 44.67 323.928 45.016 323.423 45.4648C322.918 45.895 322.544 46.4 322.301 46.9798C322.076 47.5596 321.964 48.1955 321.964 48.8875C321.964 49.5795 322.123 50.206 322.441 50.7671C322.759 51.3095 323.217 51.7397 323.816 52.0576C324.414 52.3569 325.116 52.5065 325.92 52.5065C327.135 52.5065 328.192 52.2633 329.09 51.7771C329.988 51.2908 330.68 50.6923 331.166 49.9816V49.9816C331.546 49.4463 332.766 49.2704 333.114 49.8277L333.803 50.9345C333.98 51.2176 334.015 51.5685 333.879 51.8731C333.605 52.4876 333.262 53.1195 332.849 53.7689C332.344 54.5918 331.699 55.368 330.913 56.0974C330.128 56.8081 329.183 57.3973 328.08 57.8649C326.976 58.3137 325.667 58.5382 324.152 58.5382C322.226 58.5382 320.477 58.1548 318.906 57.3879C317.354 56.6024 316.119 55.527 315.203 54.1617C314.305 52.7777 313.856 51.2066 313.856 49.4485C313.856 47.8588 314.156 46.4467 314.754 45.2123C315.353 43.9779 316.232 42.9399 317.391 42.0983C318.57 41.238 320.038 40.5927 321.796 40.1626C323.554 39.7137 325.592 39.4892 327.912 39.4892H330.338Z" fill="#FF3F4B"/>
</g>
<defs>
<filter id="filter0_d_6_9" x="199.163" y="9.21444" width="146.21" height="53.1809" filterUnits="userSpaceOnUse" color-interpolation-filters="sRGB">
<feFlood flood-opacity="0" result="BackgroundImageFix"/>
<feColorMatrix in="SourceAlpha" type="matrix" values="0 0 0 0 0 0 0 0 0 0 0 0 0 0 0 0 0 0 127 0" result="hardAlpha"/>
<feOffset dx="-0.642857" dy="-1.28571"/>
<feGaussianBlur stdDeviation="2.57143"/>
<feComposite in2="hardAlpha" operator="out"/>
<feColorMatrix type="matrix" values="0 0 0 0 0 0 0 0 0 0 0 0 0 0 0 0 0 0 0.5 0"/>
<feBlend mode="normal" in2="BackgroundImageFix" result="effect1_dropShadow_6_9"/>
<feBlend mode="normal" in="SourceGraphic" in2="effect1_dropShadow_6_9" result="shape"/>
</filter>
</defs>
</svg>
